HIERARCHY
ROOT pelvis
{
  OFFSET 0 100 0
  CHANNELS 6 Xposition Yposition Zposition Zrotation Xrotation Yrotation
  JOINT pelvis_right_femur
  {
    OFFSET -10.78128 -3.44521 -0.5502486
    CHANNELS 3 Zrotation Xrotation Yrotation
    JOINT right_femur_tibia
    {
      OFFSET -0.8047443 -44.0398 -0.1307829
      CHANNELS 3 Zrotation Xrotation Yrotation
      JOINT right_tibia_foot
      {
        OFFSET 3.006224 -47.83518 -5
        CHANNELS 3 Zrotation Xrotation Yrotation
        End Site
        {
          OFFSET 0 -5 15
        }
      }
    }
  }
  JOINT pelvis_left_femur
  {
    OFFSET 10.78128 -3.44521 -0.5502486
    CHANNELS 3 Zrotation Xrotation Yrotation
    JOINT left_femur_tibia
    {
      OFFSET 0.8047443 -44.0398 -0.1307829
      CHANNELS 3 Zrotation Xrotation Yrotation
      JOINT left_tibia_foot
      {
        OFFSET -4.370144 -48.10324 -4.275266
        CHANNELS 3 Zrotation Xrotation Yrotation
        End Site
        {
          OFFSET 0 -5 15
        }
      }
    }
  }
  JOINT pelvis_spine1
  {
    OFFSET 0 6.468898 -3.129235
    CHANNELS 3 Zrotation Xrotation Yrotation
    JOINT spine1
    {
      OFFSET 0 23.15396 4.99043
      CHANNELS 3 Zrotation Xrotation Yrotation
      JOINT spine2
      {
        OFFSET 0 20.79997 -5.064912
        CHANNELS 3 Zrotation Xrotation Yrotation
        JOINT neck
        {
          OFFSET 0 14.38658 9.616178
          CHANNELS 3 Zrotation Xrotation Yrotation
          End Site
          {
            OFFSET 0 20 0
          }
        }
      }
      JOINT right_manubrium
      {
        OFFSET -5.722621 16.35077 3.967754
        CHANNELS 3 Zrotation Xrotation Yrotation
        JOINT right_clavicle
        {
          OFFSET -13.16364 1.694482 -4.693211
          CHANNELS 3 Zrotation Xrotation Yrotation
          JOINT right_humerus
          {
            OFFSET -28.5034 -0.3100689 -2.792744
            CHANNELS 3 Zrotation Xrotation Yrotation
            JOINT right_radius
            {
              OFFSET -25.15693 0.02248979 -1.271978
              CHANNELS 3 Zrotation Xrotation Yrotation
              End Site
              {
                OFFSET -15 0 0
              }
            }
          }
        }
      }
      JOINT left_manubrium
      {
        OFFSET 5.722621 16.35077 3.967754
        CHANNELS 3 Zrotation Xrotation Yrotation
        JOINT left_clavicle
        {
          OFFSET 13.16364 1.694482 -4.693211
          CHANNELS 3 Zrotation Xrotation Yrotation
          JOINT left_humerus
          {
            OFFSET 29.39168 -1.063119 -2.237045
            CHANNELS 3 Zrotation Xrotation Yrotation
            JOINT left_radius
            {
              OFFSET 24.59957 -0.9528479 0.9047498
              CHANNELS 3 Zrotation Xrotation Yrotation
              End Site
              {
                OFFSET 15 -0 -0
              }
            }
          }
        }
      }
    }
  }
}
MOTION
Frames: 11
Frame Time: 0.0416666666667
0 103.5113 0 0.6427551 -1.035469 -0.1847592 5.021645 -17.04269 9.263656 -0 37.96916 -0 -6.967767 -16.54997 -1.327889 -7.659338 8.955307 -24.69291 -0 5.793662 -0 13.27566 -16.60176 30.84044 -3.607519 -3.540773 5.037975 2.229032 9.61785 -6.158526 2.250374 22.95656 6.015502 3.022359 -24.58032 10.03788 5.603525 -20.47095 11.51873 84.10837 33.63996 -15.51174 -0 0 16.90119 -4.647618 5.62879 3.132087 6.417561 -18.8173 -1.431637 -95.94108 23.99599 23.45106 0 0 -12.11867 14.11651 19.10203 -2.994951
0.3981087 103.3443 1.366556 0.577011 -0.8734519 -0.3627785 5.099843 -17.84714 8.945618 -0 36.81187 -0 -6.972444 -16.00446 -1.325241 -7.538735 9.401674 -24.29766 -0 5.889043 -0 12.99125 -16.81413 30.29532 -3.510212 -3.52931 4.949943 2.252097 9.623093 -6.277868 2.207135 22.86264 6.060955 3.032853 -24.59669 10.00043 5.469818 -20.35679 11.47588 84.41817 33.50568 -15.93288 -0 0 16.60182 -4.945901 5.783355 3.221316 6.501982 -19.05648 -1.525597 -95.54222 23.87438 23.0045 0 0 -12.74647 14.10865 18.91686 -2.961295
0.7067895 103.0172 3.190064 0.4814294 -0.8177772 -0.4478987 4.981346 -20.55211 7.476863 -0 33.35202 -0 -7.356767 -13.3953 -1.455405 -7.151344 11.255 -22.81422 -0 6.077111 -0 11.85025 -17.66646 28.32491 -3.305676 -3.335103 4.451461 2.278987 9.759838 -6.707762 2.000867 22.72664 6.25746 3.142888 -24.37446 9.709002 4.966949 -19.86055 11.39039 85.79844 32.82352 -17.57493 -0 0 15.08354 -6.517021 6.349486 3.834048 6.767067 -20.10664 -2.106611 -93.84535 23.62782 20.93666 0 0 -15.17484 13.7202 18.384 -2.458451
0.964773 102.616 5.316344 0.3564833 -0.4960731 -0.479965 5.027795 -22.23163 6.786901 -0 30.92606 -0 -7.364332 -12.13643 -1.536023 -6.897119 12.16971 -21.91829 -0 6.300736 -0 10.88564 -18.18738 26.95209 -3.123993 -3.227058 4.218475 2.348971 9.742444 -7.008772 1.859751 22.52908 6.408176 3.19621 -24.39308 9.579525 4.767676 -19.57333 11.33005 86.45294 32.70189 -18.54856 -0 0 14.38077 -7.275876 6.771569 4.148551 6.871373 -20.61161 -2.328616 -93.00734 23.72188 20.01837 0 0 -16.69754 13.09488 17.96462 -1.635999
1.178581 102.1597 7.761948 0.1684663 0.07826722 -0.4619037 5.215178 -23.88405 6.318998 -0 28.30505 -0 -7.186395 -11.21051 -1.613627 -6.625307 12.87837 -21.06467 -0 6.711887 -0 9.73248 -18.64983 25.47395 -2.886853 -3.14303 4.059355 2.462403 9.638251 -7.327552 1.718793 22.23574 6.571362 3.231508 -24.55432 9.503563 4.662642 -19.30466 11.2589 86.93867 32.83246 -19.47387 -0 0 13.89282 -7.804262 7.23868 4.377477 6.926908 -20.97494 -2.420872 -92.36787 23.99919 19.43309 0 0 -18.16613 12.23164 17.46904 -0.4818194
1.353993 101.6626 10.54203 -0.05108091 0.7233805 -0.4015365 5.492304 -25.40363 5.958877 -0 25.70717 -0 -6.968802 -10.43568 -1.653267 -6.364928 13.46379 -20.24915 -0 7.455964 -0 8.619566 -18.94616 24.03136 -2.607692 -3.102678 3.955888 2.574641 9.52393 -7.612831 1.608938 21.91892 6.701509 3.244853 -24.76289 9.463947 4.560043 -19.05435 11.17662 87.35366 32.96101 -20.30643 -0 0 13.50449 -8.189419 7.67363 4.521718 6.975 -21.26612 -2.453769 -91.83715 24.15749 18.99883 0 0 -19.44102 11.56707 16.961 0.4452803
1.494464 101.1551 13.69946 -0.3238446 1.483864 -0.3030172 5.879956 -26.84881 5.697276 -0 23.04454 -0 -6.712361 -9.706867 -1.671423 -6.088826 13.93751 -19.40836 -0 8.695246 -0 7.38675 -19.0777 22.47119 -2.26597 -3.087914 3.893743 2.69796 9.389583 -7.892086 1.510856 21.55479 6.820738 3.247503 -25.04395 9.447266 4.481223 -18.79657 11.08664 87.72922 33.1534 -21.12382 -0 0 13.17434 -8.470481 8.127613 4.613398 6.98981 -21.49316 -2.432731 -91.40447 24.30351 18.73965 0 0 -20.61114 10.91307 16.40355 1.392824
1.602687 100.6757 17.29339 -0.648504 2.293655 -0.1712658 6.36529 -28.14951 5.483545 -0 20.42276 -0 -6.484748 -8.871254 -1.660639 -5.798942 14.30305 -18.49793 -0 10.6934 -0 6.035856 -18.96078 20.76613 -1.852316 -3.096126 3.863547 2.817419 9.2716 -8.154498 1.426439 21.16252 6.920433 3.244707 -25.3693 9.434895 4.402889 -18.52015 10.99608 88.11912 33.3335 -21.939 -0 0 12.83262 -8.713376 8.599229 4.674925 6.962197 -21.68521 -2.394445 -91.04093 24.36219 18.61936 0 0 -21.64062 10.33907 15.80501 2.276497
1.681208 100.2856 21.39717 -1.031375 3.118921 -0.01097593 6.944517 -29.19341 5.317116 -0 17.98767 -0 -6.323213 -7.8194 -1.639017 -5.484251 14.50482 -17.48054 -0 13.76557 -0 4.459732 -18.50932 18.84086 -1.357569 -3.10592 3.858143 2.931519 9.183719 -8.402453 1.34463 20.74783 7.008654 3.247433 -25.73383 9.40534 4.349362 -18.2083 10.91941 88.54492 33.53151 -22.77578 -0 0 12.43762 -8.961938 9.118082 4.740918 6.848586 -21.83507 -2.356923 -90.76551 24.41338 18.68782 0 0 -22.50948 9.701832 15.15088 3.284082
1.731973 100.0637 26.08722 -1.457296 3.840603 0.1660626 7.577623 -29.78669 5.160345 -0 15.9775 -0 -6.30519 -6.414485 -1.624732 -5.143802 14.4768 -16.31755 -0 18.28723 -0 2.626014 -17.60071 16.69372 -0.7864729 -3.090747 3.866608 3.024745 9.167291 -8.621639 1.260662 20.34795 7.079985 3.265609 -26.08706 9.323901 4.32465 -17.84729 10.87827 89.04541 33.70468 -23.63331 -0 0 11.91628 -9.30006 9.695208 4.85637 6.609897 -21.95531 -2.365181 -90.57284 24.47378 18.93821 0 0 -23.16262 8.940074 14.4483 4.48981
1.753967 100.1013 31.41777 -1.881371 4.262689 0.3321785 8.179198 -29.67549 4.952584 -0 14.64408 -0 -6.515215 -4.573186 -1.650555 -4.779506 14.13287 -14.97906 -0 24.54772 -0 0.5562778 -16.13563 14.41171 -0.1705987 -3.006593 3.872435 3.074566 9.273003 -8.788281 1.171319 20.03119 7.121943 3.307085 -26.32833 9.142508 4.325209 -17.4264 10.90135 89.65104 33.77686 -24.48327 -0 0 11.185 -9.845266 10.33169 5.081297 6.214569 -22.06987 -2.481365 -90.43065 24.56596 19.2955 0 0 -23.55779 7.987252 13.71996 5.954058
